<?xml version="1.0" standalone="no"?>
<!DOCTYPE svg PUBLIC "-//W3C//DTD SVG 20010904//EN"
 "http://www.w3.org/TR/2001/REC-SVG-20010904/DTD/svg10.dtd">
<svg version="1.0" xmlns="http://www.w3.org/2000/svg"
 width="1120.000000pt" height="1125.000000pt" viewBox="0 0 1120.000000 1125.000000"
 preserveAspectRatio="xMidYMid meet">

<g transform="translate(0.000000,1125.000000) scale(0.100000,-0.100000)"
fill="#000000" stroke="none">
<path d="M4440 8968 l0 -303 93 -64 c393 -274 792 -519 1392 -854 50 -27 107
-61 127 -74 21 -12 40 -23 42 -23 4 0 349 -190 601 -332 28 -15 53 -28 58 -28
4 0 7 446 7 990 l0 990 -1160 0 -1160 0 0 -302z"/>
<path d="M4440 7075 l0 -295 -1245 0 -1245 0 0 -1160 0 -1160 1245 0 1245 0 0
-300 c0 -165 3 -300 6 -300 3 0 157 60 342 133 186 74 418 165 517 202 350
133 807 312 905 354 36 16 133 57 215 92 83 35 249 112 369 172 496 244 752
437 851 640 44 90 51 151 30 247 -28 126 -90 210 -238 321 -262 198 -668 385
-1702 788 -763 296 -1036 414 -1234 530 -28 17 -54 31 -56 31 -3 0 -5 -133 -5
-295z"/>
<path d="M7810 6786 c0 -2 42 -27 93 -56 162 -92 399 -255 512 -352 324 -280
463 -568 434 -900 -31 -345 -311 -673 -828 -969 l-85 -49 657 0 657 0 0 1165
0 1165 -720 0 c-396 0 -720 -2 -720 -4z"/>
<path d="M6640 4012 c-724 -214 -1031 -315 -1369 -448 -406 -161 -654 -325
-690 -457 -12 -42 -12 -53 4 -95 58 -149 299 -296 860 -523 72 -29 150 -60
175 -69 641 -242 870 -330 990 -379 l145 -60 3 520 c1 286 1 751 0 1033 l-3
512 -115 -34z"/>
<path d="M4440 2180 l0 -200 918 1 917 1 -120 19 c-639 103 -1135 210 -1531
329 -91 28 -169 50 -174 50 -6 0 -10 -79 -10 -200z"/>
</g>
</svg>
